<svg width="40" height="41" viewBox="0 0 40 41" fill="none" xmlns="http://www.w3.org/2000/svg">
<path d="M20 0C8.735 0 0 8.46114 0 19.8845C0 25.86 2.39 31.0259 6.28 34.5928C6.605 34.89 6.805 35.3103 6.815 35.7613L6.925 39.4102C6.93301 39.6786 7.00524 39.941 7.13533 40.1742C7.26543 40.4073 7.44941 40.6042 7.67111 40.7474C7.89281 40.8906 8.14544 40.9759 8.40679 40.9956C8.66815 41.0153 8.93023 40.9689 9.17 40.8605L13.14 39.0668C13.475 38.9131 13.855 38.8874 14.21 38.9848C16.035 39.4973 17.975 39.774 20 39.774C31.265 39.774 40 31.3129 40 19.8896C40 8.46627 31.265 0 20 0Z" fill="#FF8906"/>
<path d="M7.99002 25.7012L13.865 16.1485C14.086 15.7888 14.3774 15.48 14.7207 15.2416C15.064 15.0032 15.4518 14.8403 15.8596 14.7633C16.2675 14.6862 16.6864 14.6966 17.0901 14.7939C17.4938 14.8912 17.8734 15.0732 18.205 15.3285L22.88 18.921C23.0887 19.0812 23.3426 19.1673 23.6034 19.1664C23.8641 19.1654 24.1174 19.0775 24.325 18.9159L30.635 14.0063C31.475 13.3503 32.575 14.3855 32.015 15.3029L26.135 24.8505C25.914 25.2101 25.6227 25.5189 25.2793 25.7573C24.936 25.9958 24.5482 26.1586 24.1404 26.2357C23.7326 26.3127 23.3136 26.3023 22.9099 26.205C22.5062 26.1077 22.1266 25.9257 21.795 25.6705L17.12 22.0779C16.9113 21.9178 16.6574 21.8316 16.3967 21.8326C16.136 21.8335 15.8826 21.9214 15.675 22.083L9.36502 26.9927C8.52502 27.6486 7.42502 26.6185 7.99002 25.7012Z" fill="white"/>
</svg>
