<svg width="40" height="41" viewBox="0 0 40 41" fill="none" xmlns="http://www.w3.org/2000/svg">
<path d="M-1.52588e-05 41L2.81165 30.4715C1.07665 27.3897 0.164984 23.8962 0.166651 20.3138C0.171651 9.11396 9.0633 0 19.9883 0C25.2899 0.00170833 30.2666 2.11833 34.0099 5.95867C37.7516 9.799 39.8116 14.9035 39.8099 20.3326C39.8049 31.5341 30.9132 40.6481 19.9883 40.6481C16.6716 40.6464 13.4033 39.7939 10.5083 38.1744L-1.52588e-05 41ZM10.995 34.4964C13.7883 36.1962 16.4549 37.2143 19.9816 37.216C29.0616 37.216 36.4582 29.6413 36.4632 20.3292C36.4666 10.9983 29.1049 3.43375 19.9949 3.43033C10.9083 3.43033 3.51664 11.0051 3.51331 20.3155C3.51164 24.1165 4.59831 26.9626 6.4233 29.9402L4.75831 36.1722L10.995 34.4964ZM29.9733 25.162C29.8499 24.9502 29.5199 24.8238 29.0233 24.5693C28.5283 24.3147 26.0933 23.0864 25.6383 22.9173C25.1849 22.7482 24.8549 22.6628 24.5233 23.1718C24.1933 23.6792 23.2433 24.8238 22.9549 25.162C22.6666 25.5003 22.3766 25.543 21.8816 25.2885C21.3866 25.0339 19.7899 24.4992 17.8983 22.7687C16.4266 21.4225 15.4316 19.7603 15.1433 19.2512C14.855 18.7438 15.1133 18.4688 15.36 18.216C15.5833 17.9888 15.8549 17.6232 16.1033 17.3259C16.3549 17.0321 16.4366 16.8203 16.6033 16.4803C16.7683 16.142 16.6866 15.8448 16.5616 15.5903C16.4366 15.3374 15.4466 12.8381 15.035 11.8217C14.6316 10.8325 14.2233 10.9658 13.92 10.9504L12.97 10.9333C12.64 10.9333 12.1033 11.0597 11.65 11.5688C11.1966 12.0779 9.91663 13.3045 9.91663 15.8038C9.91663 18.3031 11.6916 20.717 11.9383 21.0552C12.1866 21.3935 15.4299 26.5219 20.3983 28.7205C21.5799 29.2433 22.5033 29.5559 23.2216 29.7899C24.4083 30.176 25.4883 30.1213 26.3416 29.9915C27.2933 29.8463 29.2716 28.7632 29.6849 27.5776C30.0983 26.3903 30.0983 25.3739 29.9733 25.162Z" fill="#FF8906"/>
</svg>
